<svg xmlns="http://www.w3.org/2000/svg" viewBox="0 0 3137 275" width="3137" height="275" role="img" aria-label="diagram" font-family="system-ui,-apple-system,'Segoe UI','Noto Sans SC','Microsoft YaHei',sans-serif"><defs><marker id="a-f9xslfw" viewBox="0 0 10 10" refX="9" refY="5" markerWidth="7" markerHeight="7" orient="auto-start-reverse"><path d="M0,0 L10,5 L0,10 z" fill="#5b6470"/></marker></defs><g class="edges"><path d="M1212.1360000000002,74 C1212.1360000000002,101.25 132.90690000000004,101.25 132.90690000000004,128.5" fill="none" stroke="#5b6470" stroke-width="1.3" marker-end="url(#a-f9xslfw)"/><path d="M1212.1360000000002,74 C1212.1360000000002,97 734.3036000000002,97 734.3036000000002,120" fill="none" stroke="#5b6470" stroke-width="1.3" marker-end="url(#a-f9xslfw)"/><path d="M1212.1360000000002,74 C1212.1360000000002,101.25 1008.0276000000002,101.25 1008.0276000000002,128.5" fill="none" stroke="#5b6470" stroke-width="1.3" marker-end="url(#a-f9xslfw)"/><path d="M1426.8127000000002,65.5 C1426.8127000000002,97 1255.9830000000002,97 1255.9830000000002,128.5" fill="none" stroke="#5b6470" stroke-width="1.3" marker-end="url(#a-f9xslfw)"/><path d="M1426.8127000000002,65.5 C1426.8127000000002,92.75 1529.5003000000002,92.75 1529.5003000000002,120" fill="none" stroke="#5b6470" stroke-width="1.3" marker-end="url(#a-f9xslfw)"/><path d="M1426.8127000000002,65.5 C1426.8127000000002,97 1828.6484000000003,97 1828.6484000000003,128.5" fill="none" stroke="#5b6470" stroke-width="1.3" marker-end="url(#a-f9xslfw)"/><path d="M1426.8127000000002,65.5 C1426.8127000000002,92.75 2145.7794000000004,92.75 2145.7794000000004,120" fill="none" stroke="#5b6470" stroke-width="1.3" marker-end="url(#a-f9xslfw)"/><path d="M1671.8743000000002,65.5 C1671.8743000000002,92.75 417.1726000000001,92.75 417.1726000000001,120" fill="none" stroke="#5b6470" stroke-width="1.3" marker-end="url(#a-f9xslfw)"/><path d="M417.1726000000001,172 C417.1726000000001,195 1568.2910000000002,195 1568.2910000000002,218" fill="none" stroke="#5b6470" stroke-width="1.3" marker-end="url(#a-f9xslfw)"/><path d="M1899.9176000000002,65.5 C1899.9176000000002,92.75 2446.1677000000004,92.75 2446.1677000000004,120" fill="none" stroke="#5b6470" stroke-width="1.3" marker-end="url(#a-f9xslfw)"/><path d="M1899.9176000000002,65.5 C1899.9176000000002,97 2700.5997,97 2700.5997,128.5" fill="none" stroke="#5b6470" stroke-width="1.3" marker-end="url(#a-f9xslfw)"/><path d="M1899.9176000000002,65.5 C1899.9176000000002,92.75 2971.3610000000003,92.75 2971.3610000000003,120" fill="none" stroke="#5b6470" stroke-width="1.3" marker-end="url(#a-f9xslfw)"/></g><g class="nodes"><rect x="1140.6" y="22.0" width="143.1" height="52.0" rx="7" fill="#f3f7f4" stroke="#87a596" stroke-width="1.3"/><g><text x="1170.8" y="44.1" font-size="13" fill="#2b3138">脚本模块求值</text><text x="1153.6" y="61.1" font-size="13" fill="#2b3138">（import 即执行）</text></g><rect x="22.0" y="128.5" width="221.8" height="35.0" rx="7" fill="#f3f7f4" stroke="#87a596" stroke-width="1.3"/><g><text x="35.0" y="150.6" font-size="13" fill="#2b3138">window.ezgame = new EzGame()</text></g><rect x="590.5" y="120.0" width="287.5" height="52.0" rx="7" fill="#f3f7f4" stroke="#87a596" stroke-width="1.3"/><g><text x="603.5" y="142.1" font-size="13" fill="#2b3138">@tb_config 装饰器 → TbRoot.registerC</text><text x="683.2" y="159.1" font-size="13" fill="#2b3138">ontainerConfig</text></g><rect x="908.1" y="128.5" width="199.9" height="35.0" rx="7" fill="#f3f7f4" stroke="#87a596" stroke-width="1.3"/><g><text x="921.1" y="150.6" font-size="13" fill="#2b3138">@ccclass 注册（引擎可见）</text></g><rect x="1313.7" y="30.5" width="226.2" height="35.0" rx="7" fill="#f3f7f4" stroke="#87a596" stroke-width="1.3"/><g><text x="1326.7" y="52.6" font-size="13" fill="#2b3138">Main.scene 激活（三阶段批量）</text></g><rect x="1138.0" y="128.5" width="236.0" height="35.0" rx="7" fill="#f3f7f4" stroke="#87a596" stroke-width="1.3"/><g><text x="1151.0" y="150.6" font-size="13" fill="#2b3138">UIManager.onLoad → 收集层节点</text></g><rect x="1404.0" y="120.0" width="251.0" height="52.0" rx="7" fill="#f3f7f4" stroke="#87a596" stroke-width="1.3"/><g><text x="1417.0" y="142.1" font-size="13" fill="#2b3138">UIComponent.__preload → @bind /</text><text x="1477.6" y="159.1" font-size="13" fill="#2b3138">@bindValue 解析</text></g><rect x="1685.0" y="128.5" width="287.3" height="35.0" rx="7" fill="#f3f7f4" stroke="#87a596" stroke-width="1.3"/><g><text x="1698.0" y="150.6" font-size="13" fill="#2b3138">UIWidget.onLoad → 建 scope → onInit()</text></g><rect x="2002.3" y="120.0" width="287.0" height="52.0" rx="7" fill="#f3f7f4" stroke="#87a596" stroke-width="1.3"/><g><text x="2015.3" y="142.1" font-size="13" fill="#2b3138">UIWidget.onEnable → scope.resume() →</text><text x="2117.8" y="159.1" font-size="13" fill="#2b3138">onShow()</text></g><rect x="1569.9" y="30.5" width="203.9" height="35.0" rx="7" fill="#f3f7f4" stroke="#87a596" stroke-width="1.3"/><g><text x="1582.9" y="52.6" font-size="13" fill="#2b3138">运行时 showUI(prefab 视图)</text></g><rect x="273.8" y="120.0" width="286.7" height="52.0" rx="7" fill="#f3f7f4" stroke="#87a596" stroke-width="1.3"/><g><text x="286.8" y="142.1" font-size="13" fill="#2b3138">resources.load(prefab) → instantiate</text><text x="350.1" y="159.1" font-size="13" fill="#2b3138">→ setParent 层节点</text></g><rect x="1450.1" y="218.0" width="236.3" height="35.0" rx="7" fill="#f3f7f4" stroke="#87a596" stroke-width="1.3"/><g><text x="1463.1" y="240.1" font-size="13" fill="#2b3138">自动触发上面 B 的三阶段批量激活</text></g><rect x="1803.8" y="30.5" width="192.2" height="35.0" rx="7" fill="#f3f7f4" stroke="#87a596" stroke-width="1.3"/><g><text x="1816.8" y="52.6" font-size="13" fill="#2b3138">首次访问单例（ins/inst）</text></g><rect x="2319.3" y="120.0" width="253.8" height="52.0" rx="7" fill="#f3f7f4" stroke="#87a596" stroke-width="1.3"/><g><text x="2332.3" y="142.1" font-size="13" fill="#2b3138">UIManager.ins 例外：需 Main.scene</text><text x="2389.9" y="159.1" font-size="13" fill="#2b3138">已加载，否则 null</text></g><rect x="2603.1" y="128.5" width="195.1" height="35.0" rx="7" fill="#f3f7f4" stroke="#87a596" stroke-width="1.3"/><g><text x="2616.1" y="150.6" font-size="13" fill="#2b3138">AudioMgr（自建常驻节点）</text></g><rect x="2828.1" y="120.0" width="286.4" height="52.0" rx="7" fill="#f3f7f4" stroke="#87a596" stroke-width="1.3"/><g><text x="2841.1" y="142.1" font-size="13" fill="#2b3138">TbRoot / ResManager / GlobalEventMgr</text><text x="2862.8" y="159.1" font-size="13" fill="#2b3138">/ RedDotMgr / AdMgr / SceneMgr</text></g></g><g class="edge-labels"></g><g class="notes"></g></svg>