<svg xmlns="http://www.w3.org/2000/svg" viewBox="0 0 744 974" width="744" height="974" role="img" aria-label="diagram" font-family="system-ui,-apple-system,'Segoe UI','Noto Sans SC','Microsoft YaHei',sans-serif"><defs><marker id="a-fsrwx2q" viewBox="0 0 10 10" refX="9" refY="5" markerWidth="7" markerHeight="7" orient="auto-start-reverse"><path d="M0,0 L10,5 L0,10 z" fill="#5b6470"/></marker></defs><g class="edges"><path d="M372.18090000000007,57 C372.18090000000007,80 372.18090000000007,80 372.18090000000007,103" fill="none" stroke="#5b6470" stroke-width="1.3" marker-end="url(#a-fsrwx2q)"/><path d="M372.18090000000007,138 C372.18090000000007,161 221.12550000000005,161 221.12550000000005,184" fill="none" stroke="#5b6470" stroke-width="1.3" marker-end="url(#a-fsrwx2q)"/><path d="M372.18090000000007,138 C372.18090000000007,165.25 490.7155000000001,165.25 490.7155000000001,192.5" fill="none" stroke="#5b6470" stroke-width="1.3" marker-end="url(#a-fsrwx2q)"/><path d="M490.7155000000001,227.5 C490.7155000000001,254.75 372.18090000000007,254.75 372.18090000000007,282" fill="none" stroke="#5b6470" stroke-width="1.3" marker-end="url(#a-fsrwx2q)"/><path d="M372.18090000000007,334 C372.18090000000007,357 372.18090000000007,357 372.18090000000007,380" fill="none" stroke="#5b6470" stroke-width="1.3" marker-end="url(#a-fsrwx2q)"/><path d="M372.18090000000007,415 C372.18090000000007,438 271.28470000000004,438 271.28470000000004,461" fill="none" stroke="#5b6470" stroke-width="1.3" marker-end="url(#a-fsrwx2q)"/><path d="M271.28470000000004,496 C271.28470000000004,523.25 245.92950000000002,523.25 245.92950000000002,550.5" fill="none" stroke="#5b6470" stroke-width="1.3" marker-end="url(#a-fsrwx2q)"/><path d="M245.92950000000002,585.5 C245.92950000000002,617 145.92900000000003,617 145.92900000000003,648.5" fill="none" stroke="#5b6470" stroke-width="1.3" marker-end="url(#a-fsrwx2q)"/><path d="M245.92950000000002,585.5 C245.92950000000002,612.75 423.7870000000001,612.75 423.7870000000001,640" fill="none" stroke="#5b6470" stroke-width="1.3" marker-end="url(#a-fsrwx2q)"/><path d="M145.92900000000003,683.5 C145.92900000000003,710.75 298.36240000000004,710.75 298.36240000000004,738" fill="none" stroke="#5b6470" stroke-width="1.3" marker-end="url(#a-fsrwx2q)"/><path d="M423.7870000000001,692 C423.7870000000001,715 298.36240000000004,715 298.36240000000004,738" fill="none" stroke="#5b6470" stroke-width="1.3" marker-end="url(#a-fsrwx2q)"/><path d="M298.36240000000004,773 C298.36240000000004,796 215.82020000000003,796 215.82020000000003,819" fill="none" stroke="#5b6470" stroke-width="1.3" marker-end="url(#a-fsrwx2q)"/><path d="M215.82020000000003,871 C215.82020000000003,894 372.18090000000007,894 372.18090000000007,917" fill="none" stroke="#5b6470" stroke-width="1.3" marker-end="url(#a-fsrwx2q)"/><path d="M298.36240000000004,773 C298.36240000000004,796 531.7799,796 531.7799,819" fill="none" stroke="#5b6470" stroke-width="1.3" marker-end="url(#a-fsrwx2q)"/><path d="M372.18090000000007,415 C372.18090000000007,438 480.2427000000001,438 480.2427000000001,461" fill="none" stroke="#5b6470" stroke-width="1.3" marker-end="url(#a-fsrwx2q)"/><path d="M480.2427000000001,496 C480.2427000000001,519 484.1011000000001,519 484.1011000000001,542" fill="none" stroke="#5b6470" stroke-width="1.3" marker-end="url(#a-fsrwx2q)"/><path d="M484.1011000000001,594 C484.1011000000001,621.25 650.0389000000001,621.25 650.0389000000001,648.5" fill="none" stroke="#5b6470" stroke-width="1.3" marker-end="url(#a-fsrwx2q)"/><path d="M650.0389000000001,683.5 C650.0389000000001,710.75 493.26480000000004,710.75 493.26480000000004,738" fill="none" stroke="#5b6470" stroke-width="1.3" marker-end="url(#a-fsrwx2q)"/></g><g class="nodes"><rect x="328.8" y="22.0" width="86.8" height="35.0" rx="7" fill="#f3f7f4" stroke="#87a596" stroke-width="1.3"/><g><text x="341.8" y="44.1" font-size="13" fill="#2b3138">loadTbs()</text></g><rect x="317.7" y="103.0" width="109.0" height="35.0" rx="7" fill="#f3f7f4" stroke="#87a596" stroke-width="1.3"/><g><text x="330.7" y="125.1" font-size="13" fill="#2b3138">initialized ?</text></g><rect x="117.6" y="184.0" width="207.1" height="52.0" rx="7" fill="#f3f7f4" stroke="#87a596" stroke-width="1.3"/><g><text x="130.6" y="206.1" font-size="13" fill="#2b3138">LogMgr.info('已加载，跳过')</text><text x="175.3" y="223.1" font-size="13" fill="#2b3138">resolve(true)</text></g><rect x="354.7" y="192.5" width="272.1" height="35.0" rx="7" fill="#f3f7f4" stroke="#87a596" stroke-width="1.3"/><g><text x="367.7" y="214.6" font-size="13" fill="#2b3138">entries = containerConfigs 全部条目</text></g><rect x="249.4" y="282.0" width="245.7" height="52.0" rx="7" fill="#f3f7f4" stroke="#87a596" stroke-width="1.3"/><g><text x="266.8" y="304.1" font-size="13" fill="#2b3138">① 为每个注册项 new 一个容器实例</text><text x="262.4" y="321.1" font-size="13" fill="#2b3138">写进 containers: Map&lt;类名, 实例&gt;</text></g><rect x="250.2" y="380.0" width="244.0" height="35.0" rx="7" fill="#f3f7f4" stroke="#87a596" stroke-width="1.3"/><g><text x="263.2" y="402.1" font-size="13" fill="#2b3138">② Promise.all：并行加载每个 JSON</text></g><rect x="178.2" y="461.0" width="186.1" height="35.0" rx="7" fill="#f3f7f4" stroke="#87a596" stroke-width="1.3"/><g><text x="191.2" y="483.1" font-size="13" fill="#2b3138">_loadJson(bundle, path)</text></g><rect x="149.0" y="550.5" width="193.8" height="35.0" rx="7" fill="#f3f7f4" stroke="#87a596" stroke-width="1.3"/><g><text x="162.0" y="572.6" font-size="13" fill="#2b3138">bundle === 'resources' ?</text></g><rect x="22.0" y="648.5" width="247.9" height="35.0" rx="7" fill="#f3f7f4" stroke="#87a596" stroke-width="1.3"/><g><text x="35.0" y="670.6" font-size="13" fill="#2b3138">resources.load(path, JsonAsset)</text></g><rect x="299.9" y="640.0" width="247.9" height="52.0" rx="7" fill="#f3f7f4" stroke="#87a596" stroke-width="1.3"/><g><text x="312.9" y="662.1" font-size="13" fill="#2b3138">assetManager.loadBundle(bundle)</text><text x="316.6" y="679.1" font-size="13" fill="#2b3138">→ bundle.load(path, JsonAsset)</text></g><rect x="192.3" y="738.0" width="212.2" height="35.0" rx="7" fill="#f3f7f4" stroke="#87a596" stroke-width="1.3"/><g><text x="205.3" y="760.1" font-size="13" fill="#2b3138">container.handleData(json)</text></g><rect x="71.2" y="819.0" width="289.2" height="52.0" rx="7" fill="#f3f7f4" stroke="#87a596" stroke-width="1.3"/><g><text x="84.2" y="841.1" font-size="13" fill="#2b3138">默认实现：数组遍历 → cfgMap/codeMap/</text><text x="159.9" y="858.1" font-size="13" fill="#2b3138">maxId/minId/size</text></g><rect x="272.0" y="917.0" width="200.3" height="35.0" rx="7" fill="#f3f7f4" stroke="#87a596" stroke-width="1.3"/><g><text x="285.0" y="939.1" font-size="13" fill="#2b3138">afterHandle()（单表钩子）</text></g><rect x="390.4" y="819.0" width="282.7" height="52.0" rx="7" fill="#f3f7f4" stroke="#87a596" stroke-width="1.3"/><g><text x="403.4" y="841.1" font-size="13" fill="#2b3138">LogMgr.err/warn 后 **被 catch 吞掉**</text><text x="435.3" y="858.1" font-size="13" fill="#2b3138">该表保持空容器，不影响其他表</text></g><rect x="394.3" y="461.0" width="171.8" height="35.0" rx="7" fill="#f3f7f4" stroke="#87a596" stroke-width="1.3"/><g><text x="407.3" y="483.1" font-size="13" fill="#2b3138">③ Promise.all 全部完成</text></g><rect x="372.8" y="542.0" width="222.5" height="52.0" rx="7" fill="#f3f7f4" stroke="#87a596" stroke-width="1.3"/><g><text x="385.8" y="564.1" font-size="13" fill="#2b3138">对每个容器调 afterAllHandle()</text><text x="442.8" y="581.1" font-size="13" fill="#2b3138">（跨表钩子）</text></g><rect x="577.7" y="648.5" width="144.6" height="35.0" rx="7" fill="#f3f7f4" stroke="#87a596" stroke-width="1.3"/><g><text x="590.7" y="670.6" font-size="13" fill="#2b3138">initialized = true</text></g><rect x="434.4" y="738.0" width="117.6" height="35.0" rx="7" fill="#f3f7f4" stroke="#87a596" stroke-width="1.3"/><g><text x="447.4" y="760.1" font-size="13" fill="#2b3138">resolve(true)</text></g></g><g class="edge-labels"><g><rect x="285.6" y="152.0" width="22.2" height="18" rx="4" fill="#f6f8f9" opacity="0.95"/><text x="296.7" y="165.0" font-size="11.5" fill="#4a5560" text-anchor="middle" font-family="ui-monospace,Consolas,monospace">是</text></g><g><rect x="420.4" y="156.3" width="22.2" height="18" rx="4" fill="#f6f8f9" opacity="0.95"/><text x="431.4" y="169.3" font-size="11.5" fill="#4a5560" text-anchor="middle" font-family="ui-monospace,Consolas,monospace">否</text></g><g><rect x="184.8" y="608.0" width="22.2" height="18" rx="4" fill="#f6f8f9" opacity="0.95"/><text x="195.9" y="621.0" font-size="11.5" fill="#4a5560" text-anchor="middle" font-family="ui-monospace,Consolas,monospace">是</text></g><g><rect x="323.8" y="603.8" width="22.2" height="18" rx="4" fill="#f6f8f9" opacity="0.95"/><text x="334.9" y="616.8" font-size="11.5" fill="#4a5560" text-anchor="middle" font-family="ui-monospace,Consolas,monospace">否</text></g><g><rect x="379.4" y="787.0" width="71.3" height="18" rx="4" fill="#f6f8f9" opacity="0.95"/><text x="415.1" y="800.0" font-size="11.5" fill="#4a5560" text-anchor="middle" font-family="ui-monospace,Consolas,monospace">任一步 err</text></g></g><g class="notes"></g></svg>