<svg xmlns="http://www.w3.org/2000/svg" viewBox="0 0 584 466" width="584" height="466" role="img" aria-label="sequence diagram" font-family="system-ui,-apple-system,'Segoe UI','Noto Sans SC','Microsoft YaHei',sans-serif"><defs><marker id="a-smb30j0" viewBox="0 0 10 10" refX="9" refY="5" markerWidth="7" markerHeight="7" orient="auto-start-reverse"><path d="M0,0 L10,5 L0,10 z" fill="#4a5560"/></marker></defs><line x1="72.0" y1="46" x2="72.0" y2="452" stroke="#c8d1da" stroke-dasharray="4 4" stroke-width="1"/><line x1="219.3" y1="46" x2="219.3" y2="452" stroke="#c8d1da" stroke-dasharray="4 4" stroke-width="1"/><line x1="373.1" y1="46" x2="373.1" y2="452" stroke="#c8d1da" stroke-dasharray="4 4" stroke-width="1"/><line x1="511.7" y1="46" x2="511.7" y2="452" stroke="#c8d1da" stroke-dasharray="4 4" stroke-width="1"/><line x1="72.0" y1="62.0" x2="219.3" y2="62.0" stroke="#4a5560" stroke-width="1.3" marker-end="url(#a-smb30j0)"/><rect x="-4.1" y="41.0" width="299.4" height="17" rx="3" fill="#ffffff" opacity="0.93"/><text x="145.6" y="54.0" font-size="12.5" fill="#333c45" text-anchor="middle">subscribe('Main/Mail', cb) (RedDotMgr.ts:105)</text><line x1="219.3" y1="92.0" x2="373.1" y2="92.0" stroke="#4a5560" stroke-width="1.3" marker-end="url(#a-smb30j0)"/><rect x="148.4" y="71.0" width="295.5" height="17" rx="3" fill="#ffffff" opacity="0.93"/><text x="296.2" y="84.0" font-size="12.5" fill="#333c45" text-anchor="middle">getNode(path) —— 不存在则自动建点 (:71-83)</text><line x1="219.3" y1="122.0" x2="373.1" y2="122.0" stroke="#4a5560" stroke-width="1.3" marker-end="url(#a-smb30j0)"/><rect x="211.0" y="101.0" width="170.5" height="17" rx="3" fill="#ffffff" opacity="0.93"/><text x="296.2" y="114.0" font-size="12.5" fill="#333c45" text-anchor="middle">node.subscribe(cb) (:107)</text><line x1="373.1" y1="152.0" x2="72.0" y2="152.0" stroke="#4a5560" stroke-width="1.3" marker-end="url(#a-smb30j0)" stroke-dasharray="5 4"/><rect x="82.9" y="116.0" width="279.4" height="32" rx="3" fill="#ffffff" opacity="0.93"/><text x="222.6" y="129.0" font-size="12.5" fill="#333c45" text-anchor="middle">立即 cb(this._isActive) (:54) ← 初始 false</text><text x="222.6" y="144.0" font-size="12.5" fill="#333c45" text-anchor="middle">也会回调一次</text><line x1="219.3" y1="197.0" x2="72.0" y2="197.0" stroke="#4a5560" stroke-width="1.3" marker-end="url(#a-smb30j0)" stroke-dasharray="5 4"/><rect x="-5.8" y="176.0" width="302.8" height="17" rx="3" fill="#ffffff" opacity="0.93"/><text x="145.6" y="189.0" font-size="12.5" fill="#333c45" text-anchor="middle">返回取消函数 () =&gt; node.unsubscribe(cb) (:108)</text><line x1="511.7" y1="227.0" x2="219.3" y2="227.0" stroke="#4a5560" stroke-width="1.3" marker-end="url(#a-smb30j0)"/><rect x="251.5" y="206.0" width="228.0" height="17" rx="3" fill="#ffffff" opacity="0.93"/><text x="365.5" y="219.0" font-size="12.5" fill="#333c45" text-anchor="middle">setActive('Main/Mail', true) (:100)</text><line x1="219.3" y1="257.0" x2="373.1" y2="257.0" stroke="#4a5560" stroke-width="1.3" marker-end="url(#a-smb30j0)"/><rect x="138.5" y="236.0" width="315.4" height="17" rx="3" fill="#ffffff" opacity="0.93"/><text x="296.2" y="249.0" font-size="12.5" fill="#333c45" text-anchor="middle">node.isActive = true (:102 → RedDotNode.ts:17)</text><path d="M373.1,291.0 C409.1,283.0 409.1,307.0 373.1,305.0" fill="none" stroke="#4a5560" stroke-width="1.3" marker-end="url(#a-smb30j0)"/><text x="417.1" y="293.0" font-size="12.5" fill="#333c45">notify() (:21 / :61-63)</text><line x1="373.1" y1="317.0" x2="72.0" y2="317.0" stroke="#4a5560" stroke-width="1.3" marker-end="url(#a-smb30j0)" stroke-dasharray="5 4"/><rect x="139.6" y="296.0" width="165.8" height="17" rx="3" fill="#ffffff" opacity="0.93"/><text x="222.6" y="309.0" font-size="12.5" fill="#333c45" text-anchor="middle">cb(true) → 刷新红点显隐</text><path d="M373.1,351.0 C409.1,343.0 409.1,367.0 373.1,365.0" fill="none" stroke="#4a5560" stroke-width="1.3" marker-end="url(#a-smb30j0)"/><text x="417.1" y="353.0" font-size="12.5" fill="#333c45">parent.updateState() (:24 → :41) → some() 为</text><text x="417.1" y="368.0" font-size="12.5" fill="#333c45">true → 父 notify (:47) → 继续向上 (:48)</text><line x1="72.0" y1="392.0" x2="219.3" y2="392.0" stroke="#4a5560" stroke-width="1.3" marker-end="url(#a-smb30j0)"/><rect x="10.2" y="371.0" width="270.9" height="17" rx="3" fill="#ffffff" opacity="0.93"/><text x="145.6" y="384.0" font-size="12.5" fill="#333c45" text-anchor="middle">onDestroy → off() (调用 :108 返回的闭包)</text><line x1="219.3" y1="422.0" x2="373.1" y2="422.0" stroke="#4a5560" stroke-width="1.3" marker-end="url(#a-smb30j0)"/><rect x="194.7" y="401.0" width="202.9" height="17" rx="3" fill="#ffffff" opacity="0.93"/><text x="296.2" y="414.0" font-size="12.5" fill="#333c45" text-anchor="middle">node.unsubscribe(cb) (:57-59)</text><g><rect x="26.0" y="16" width="92.0" height="30" rx="7" fill="#eef4fb" stroke="#8fb0cd" stroke-width="1.3"/><text x="72.0" y="36.0" font-size="13" fill="#26405a" text-anchor="middle">UI 组件</text></g><g><rect x="158.0" y="16" width="122.5" height="30" rx="7" fill="#eef4fb" stroke="#8fb0cd" stroke-width="1.3"/><text x="219.3" y="36.0" font-size="13" fill="#26405a" text-anchor="middle">RedDotMgr.ins</text></g><g><rect x="320.5" y="16" width="105.2" height="30" rx="7" fill="#eef4fb" stroke="#8fb0cd" stroke-width="1.3"/><text x="373.1" y="36.0" font-size="13" fill="#26405a" text-anchor="middle">RedDotNode</text></g><g><rect x="465.7" y="16" width="92.0" height="30" rx="7" fill="#eef4fb" stroke="#8fb0cd" stroke-width="1.3"/><text x="511.7" y="36.0" font-size="13" fill="#26405a" text-anchor="middle">业务系统</text></g></svg>