<svg xmlns="http://www.w3.org/2000/svg" viewBox="0 0 755 765" width="755" height="765" role="img" aria-label="diagram" font-family="system-ui,-apple-system,'Segoe UI','Noto Sans SC','Microsoft YaHei',sans-serif"><defs><marker id="a-ftzeh3l" viewBox="0 0 10 10" refX="9" refY="5" markerWidth="7" markerHeight="7" orient="auto-start-reverse"><path d="M0,0 L10,5 L0,10 z" fill="#5b6470"/></marker></defs><g class="edges"><path d="M377.5551000000001,57 C377.5551000000001,80 377.55510000000004,80 377.55510000000004,103" fill="none" stroke="#5b6470" stroke-width="1.3" marker-end="url(#a-ftzeh3l)"/><path d="M377.55510000000004,138 C377.55510000000004,161 288.7853000000001,161 288.7853000000001,184" fill="none" stroke="#5b6470" stroke-width="1.3" marker-end="url(#a-ftzeh3l)"/><path d="M377.55510000000004,138 C377.55510000000004,169.5 510.97210000000007,169.5 510.97210000000007,201" fill="none" stroke="#5b6470" stroke-width="1.3" marker-end="url(#a-ftzeh3l)"/><path d="M510.97210000000007,236 C510.97210000000007,267.5 217.68050000000005,267.5 217.68050000000005,299" fill="none" stroke="#5b6470" stroke-width="1.3" marker-end="url(#a-ftzeh3l)"/><path d="M510.97210000000007,236 C510.97210000000007,271.75 511.1099000000001,271.75 511.1099000000001,307.5" fill="none" stroke="#5b6470" stroke-width="1.3" marker-end="url(#a-ftzeh3l)"/><path d="M511.1099000000001,342.5 C511.1099000000001,369.75 254.5420000000001,369.75 254.5420000000001,397" fill="none" stroke="#5b6470" stroke-width="1.3" marker-end="url(#a-ftzeh3l)"/><path d="M511.1099000000001,342.5 C511.1099000000001,374 519.4468,374 519.4468,405.5" fill="none" stroke="#5b6470" stroke-width="1.3" marker-end="url(#a-ftzeh3l)"/><path d="M519.4468,440.5 C519.4468,467.75 377.5551000000001,467.75 377.5551000000001,495" fill="none" stroke="#5b6470" stroke-width="1.3" marker-end="url(#a-ftzeh3l)"/><path d="M377.5551000000001,547 C377.5551000000001,574.25 124.22550000000003,574.25 124.22550000000003,601.5" fill="none" stroke="#5b6470" stroke-width="1.3" marker-end="url(#a-ftzeh3l)"/><path d="M377.5551000000001,547 C377.5551000000001,570 370.7340000000001,570 370.7340000000001,593" fill="none" stroke="#5b6470" stroke-width="1.3" marker-end="url(#a-ftzeh3l)"/><path d="M124.22550000000003,636.5 C124.22550000000003,663.75 377.5551000000001,663.75 377.5551000000001,691" fill="none" stroke="#5b6470" stroke-width="1.3" marker-end="url(#a-ftzeh3l)"/><path d="M370.7340000000001,645 C370.7340000000001,668 377.5551000000001,668 377.5551000000001,691" fill="none" stroke="#5b6470" stroke-width="1.3" marker-end="url(#a-ftzeh3l)"/><path d="M377.5551000000001,547 C377.5551000000001,570 624.0636000000002,570 624.0636000000002,593" fill="none" stroke="#5b6470" stroke-width="1.3" marker-end="url(#a-ftzeh3l)" stroke-dasharray="5 4"/></g><g class="nodes"><rect x="270.0" y="22.0" width="215.1" height="35.0" rx="7" fill="#f3f7f4" stroke="#87a596" stroke-width="1.3"/><g><text x="283.0" y="44.1" font-size="13" fill="#2b3138">showRewardVideo(placement)</text></g><rect x="306.2" y="103.0" width="142.7" height="35.0" rx="7" fill="#f3f7f4" stroke="#87a596" stroke-width="1.3"/><g><text x="319.2" y="125.1" font-size="13" fill="#2b3138">playing == true ?</text></g><rect x="170.4" y="184.0" width="236.8" height="69.0" rx="7" fill="#f3f7f4" stroke="#87a596" stroke-width="1.3"/><g><text x="183.4" y="206.1" font-size="13" fill="#2b3138">LogMgr.warn 上一个广告还没播完</text><text x="187.0" y="223.1" font-size="13" fill="#2b3138">return Promise.resolve(false)</text><text x="237.7" y="240.1" font-size="13" fill="#2b3138">AdMgr.ts:94-97</text></g><rect x="437.2" y="201.0" width="147.5" height="35.0" rx="7" fill="#f3f7f4" stroke="#87a596" stroke-width="1.3"/><g><text x="450.2" y="223.1" font-size="13" fill="#2b3138">provider == null ?</text></g><rect x="99.1" y="299.0" width="237.1" height="52.0" rx="7" fill="#f3f7f4" stroke="#87a596" stroke-width="1.3"/><g><text x="112.1" y="321.1" font-size="13" fill="#2b3138">warn 未接入 SDK → 本次不发奖励</text><text x="115.9" y="338.1" font-size="13" fill="#2b3138">return false  AdMgr.ts:98-103</text></g><rect x="366.2" y="307.5" width="289.7" height="35.0" rx="7" fill="#f3f7f4" stroke="#87a596" stroke-width="1.3"/><g><text x="379.2" y="329.6" font-size="13" fill="#2b3138">provider.isAvailable 存在且返回 false ?</text></g><rect x="127.7" y="397.0" width="253.8" height="52.0" rx="7" fill="#f3f7f4" stroke="#87a596" stroke-width="1.3"/><g><text x="140.7" y="419.1" font-size="13" fill="#2b3138">warn 当前不可用（平台返回 false）</text><text x="150.4" y="436.1" font-size="13" fill="#2b3138">return false  AdMgr.ts:104-107</text></g><rect x="411.4" y="405.5" width="216.0" height="35.0" rx="7" fill="#f3f7f4" stroke="#87a596" stroke-width="1.3"/><g><text x="424.4" y="427.6" font-size="13" fill="#2b3138">playing = true  AdMgr.ts:109</text></g><rect x="235.8" y="495.0" width="283.5" height="52.0" rx="7" fill="#f3f7f4" stroke="#87a596" stroke-width="1.3"/><g><text x="248.8" y="517.1" font-size="13" fill="#2b3138">await provider.showRewardVideo(place</text><text x="359.7" y="534.1" font-size="13" fill="#2b3138">ment)</text></g><rect x="22.0" y="601.5" width="204.5" height="35.0" rx="7" fill="#f3f7f4" stroke="#87a596" stroke-width="1.3"/><g><text x="35.0" y="623.6" font-size="13" fill="#2b3138">then: ok = !!v  AdMgr.ts:111</text></g><rect x="256.5" y="593.0" width="228.6" height="52.0" rx="7" fill="#f3f7f4" stroke="#87a596" stroke-width="1.3"/><g><text x="279.5" y="615.1" font-size="13" fill="#2b3138">catch: LogMgr.err 拉起失败</text><text x="269.5" y="632.1" font-size="13" fill="#2b3138">return false  AdMgr.ts:112-115</text></g><rect x="258.0" y="691.0" width="239.0" height="52.0" rx="7" fill="#f3f7f4" stroke="#87a596" stroke-width="1.3"/><g><text x="271.0" y="713.1" font-size="13" fill="#2b3138">then: playing = false → 返回 ok</text><text x="324.5" y="730.1" font-size="13" fill="#2b3138">AdMgr.ts:116-119</text></g><rect x="515.0" y="593.0" width="218.1" height="52.0" rx="7" fill="#f3f7f4" stroke="#87a596" stroke-width="1.3"/><g><text x="559.0" y="615.1" font-size="13" fill="#2b3138">playing 永久为 true</text><text x="528.0" y="632.1" font-size="13" fill="#2b3138">之后所有广告位全部直接 false</text></g></g><g class="edge-labels"><g><rect x="322.1" y="152.0" width="22.2" height="18" rx="4" fill="#f6f8f9" opacity="0.95"/><text x="333.2" y="165.0" font-size="11.5" fill="#4a5560" text-anchor="middle" font-family="ui-monospace,Consolas,monospace">是</text></g><g><rect x="433.2" y="160.5" width="22.2" height="18" rx="4" fill="#f6f8f9" opacity="0.95"/><text x="444.3" y="173.5" font-size="11.5" fill="#4a5560" text-anchor="middle" font-family="ui-monospace,Consolas,monospace">否</text></g><g><rect x="353.2" y="258.5" width="22.2" height="18" rx="4" fill="#f6f8f9" opacity="0.95"/><text x="364.3" y="271.5" font-size="11.5" fill="#4a5560" text-anchor="middle" font-family="ui-monospace,Consolas,monospace">是</text></g><g><rect x="499.9" y="262.8" width="22.2" height="18" rx="4" fill="#f6f8f9" opacity="0.95"/><text x="511.0" y="275.8" font-size="11.5" fill="#4a5560" text-anchor="middle" font-family="ui-monospace,Consolas,monospace">否</text></g><g><rect x="371.7" y="360.8" width="22.2" height="18" rx="4" fill="#f6f8f9" opacity="0.95"/><text x="382.8" y="373.8" font-size="11.5" fill="#4a5560" text-anchor="middle" font-family="ui-monospace,Consolas,monospace">是</text></g><g><rect x="504.2" y="365.0" width="22.2" height="18" rx="4" fill="#f6f8f9" opacity="0.95"/><text x="515.3" y="378.0" font-size="11.5" fill="#4a5560" text-anchor="middle" font-family="ui-monospace,Consolas,monospace">否</text></g><g><rect x="208.8" y="565.3" width="84.2" height="18" rx="4" fill="#f6f8f9" opacity="0.95"/><text x="250.9" y="578.3" font-size="11.5" fill="#4a5560" text-anchor="middle" font-family="ui-monospace,Consolas,monospace">&quot;resolve(v)&quot;</text></g><g><rect x="327.3" y="561.0" width="93.6" height="18" rx="4" fill="#f6f8f9" opacity="0.95"/><text x="374.1" y="574.0" font-size="11.5" fill="#4a5560" text-anchor="middle" font-family="ui-monospace,Consolas,monospace">&quot;reject(err)&quot;</text></g><g><rect x="422.3" y="554.0" width="157.0" height="32" rx="4" fill="#f6f8f9" opacity="0.95"/><text x="500.8" y="574.0" font-size="11.5" fill="#4a5560" text-anchor="middle" font-family="ui-monospace,Consolas,monospace">&quot;永不 settle（源码无超时</text><text x="500.8" y="587.0" font-size="11.5" fill="#4a5560" text-anchor="middle" font-family="ui-monospace,Consolas,monospace">兜底）&quot;</text></g></g><g class="notes"></g></svg>